<svg width="0" height="0" class="hidden">
  <symbol width="17" height="16" fill="none" xmlns="http://www.w3.org/2000/svg" viewBox="0 0 17 16" id="additionally">
    <path d="M4.07005 10.2031V9.28529L5.82311 7.83512C5.93937 7.73875 6.0388 7.64849 6.12141 7.56436C6.20554 7.47869 6.26979 7.39073 6.31415 7.30048C6.36005 7.21023 6.38299 7.11003 6.38299 6.99989C6.38299 6.87904 6.35699 6.77579 6.30498 6.69012C6.2545 6.60446 6.18413 6.53868 6.09387 6.49279C6.00362 6.44537 5.8996 6.42166 5.78181 6.42166C5.66402 6.42166 5.56 6.44537 5.46975 6.49279C5.38102 6.54021 5.31219 6.60981 5.26324 6.70159C5.21429 6.79338 5.18981 6.90505 5.18981 7.0366H3.97827C3.97827 6.70618 4.05246 6.42166 4.20085 6.18302C4.34923 5.94438 4.5588 5.76082 4.82956 5.63232C5.10032 5.50382 5.41774 5.43958 5.78181 5.43958C6.15812 5.43958 6.48395 5.5 6.7593 5.62085C7.03618 5.74017 7.24958 5.90843 7.39949 6.12565C7.55093 6.34288 7.62665 6.59757 7.62665 6.88975C7.62665 7.07026 7.58918 7.25 7.51422 7.42898C7.43926 7.60642 7.30465 7.80299 7.11037 8.01868C6.9161 8.23437 6.63998 8.49137 6.28203 8.78966L5.84147 9.1568V9.18433H7.67713V10.2031H4.07005Z" fill="#A2A1A1"></path>
    <path d="M7.97125 9.46886V8.4776L9.86199 5.50382H10.7615V6.8255H10.2475L9.22868 8.44089V8.4776H12.0189V9.46886H7.97125ZM10.2567 10.2031V9.16597L10.2842 8.73459V5.50382H11.4774V10.2031H10.2567Z" fill="#A2A1A1"></path>
    <path d="M15 8.04929C15 4.18329 11.866 1.04929 8 1.04929C4.13401 1.04929 1 4.18329 1 8.04929C1 11.9153 4.13401 15.0493 8 15.0493M15 8.04929L13.1154 6.4339M15 8.04929L16.3462 5.89544" stroke="#A2A1A1" stroke-width="1.3" stroke-linecap="round" stroke-linejoin="round"></path>
  </symbol>
  <symbol fill="none" xmlns="http://www.w3.org/2000/svg" viewBox="0 0 22 22" id="cart">
    <path d="M19.9977 19.0358L19.0974 6.4358C19.0638 5.96482 18.672 5.6 18.1998 5.6H14.5998C14.5998 3.6116 12.9882 2 10.9998 2C9.01145 2 7.39986 3.6116 7.39986 5.6H3.79987C3.32769 5.6 2.93587 5.96482 2.90226 6.4358L2.00227 19.0358C1.98458 19.2851 2.07096 19.5305 2.24136 19.7132C2.41148 19.8962 2.64998 20 2.89987 20H19.0998C19.3497 20 19.5882 19.8962 19.7586 19.7132C19.9287 19.5305 20.0154 19.2851 19.9977 19.0358ZM14.1498 8.30004C14.3979 8.30004 14.5998 8.50194 14.5998 8.75004C14.5998 8.99813 14.3979 9.20004 14.1498 9.20004C13.9017 9.20004 13.6998 8.99813 13.6998 8.75004C13.6998 8.50194 13.9017 8.30004 14.1498 8.30004ZM10.9998 2.9C12.4887 2.9 13.6998 4.1111 13.6998 5.6H8.29985C8.29985 4.11141 9.51095 2.9 10.9998 2.9ZM7.84985 8.30004C8.09795 8.30004 8.29985 8.50194 8.29985 8.75004C8.29985 8.99813 8.09795 9.20004 7.84985 9.20004C7.60176 9.20004 7.39986 8.99813 7.39986 8.75004C7.39986 8.50194 7.60176 8.30004 7.84985 8.30004ZM2.89987 19.1L3.79987 6.50004H7.39986V7.48255C6.87666 7.66856 6.49986 8.16296 6.49986 8.75004C6.49986 9.49552 7.10437 10.1 7.84985 10.1C8.59534 10.1 9.19985 9.49552 9.19985 8.75004C9.19985 8.16324 8.82305 7.66852 8.29985 7.48255V6.50004H13.6998V7.48255C13.1766 7.66856 12.7998 8.16296 12.7998 8.75004C12.7998 9.49552 13.4043 10.1 14.1498 10.1C14.8953 10.1 15.4998 9.49552 15.4998 8.75004C15.4998 8.16324 15.123 7.66852 14.5998 7.48255V6.50004H18.1998L19.0998 19.1H2.89987Z" fill="#F87171"></path>
  </symbol>
  <symbol xmlns="http://www.w3.org/2000/svg" viewBox="0 0 18 19" id="instagram">
    <path d="M9.00274 4.80693C6.68251 4.80693 4.8041 6.68735 4.8041 9.0055C4.8041 11.3257 6.68456 13.2041 9.00274 13.2041C11.323 13.2041 13.2014 11.3236 13.2014 9.0055C13.2014 6.68531 11.3209 4.80693 9.00274 4.80693ZM9.00274 11.7307C7.4966 11.7307 6.27751 10.5109 6.27751 9.0055C6.27751 7.50007 7.49729 6.28032 9.00274 6.28032C10.5082 6.28032 11.728 7.50007 11.728 9.0055C11.7287 10.5109 10.5089 11.7307 9.00274 11.7307Z"></path>
    <path d="M12.3737 0.878517C10.8683 0.808291 7.13941 0.8117 5.63259 0.878517C4.3085 0.940561 3.14054 1.26033 2.19895 2.2019C0.625316 3.77551 0.826452 5.89593 0.826452 9.00565C0.826452 12.1883 0.649179 14.2596 2.19895 15.8094C3.77873 17.3885 5.92986 17.1819 9.00282 17.1819C12.1555 17.1819 13.2437 17.1839 14.3585 16.7523C15.8742 16.1639 17.0183 14.8092 17.1301 12.3758C17.201 10.8697 17.1969 7.14159 17.1301 5.6348C16.9951 2.76235 15.4535 1.02033 12.3737 0.878517ZM14.7567 14.7683C13.7251 15.7998 12.294 15.7078 8.98304 15.7078C5.57395 15.7078 4.20691 15.7583 3.20941 14.758C2.06054 13.6147 2.2685 11.7786 2.2685 8.99474C2.2685 5.22776 1.88191 2.51485 5.66259 2.32122C6.53123 2.29054 6.78691 2.28031 8.9735 2.28031L9.00418 2.30076C12.6376 2.30076 15.4883 1.92032 15.6594 5.70025C15.6983 6.56274 15.7071 6.82182 15.7071 9.00497C15.7065 12.3745 15.7705 13.7497 14.7567 14.7683Z"></path>
    <path d="M13.3678 5.62263C13.9096 5.62263 14.3489 5.18337 14.3489 4.64151C14.3489 4.09966 13.9096 3.66039 13.3678 3.66039C12.8259 3.66039 12.3866 4.09966 12.3866 4.64151C12.3866 5.18337 12.8259 5.62263 13.3678 5.62263Z"></path>
  </symbol>
  <symbol xmlns="http://www.w3.org/2000/svg" viewBox="0 0 18 19" id="telegram">
    <path d="M0.838128 8.06304L16.8012 1.72289C17.5421 1.44717 18.1892 1.90907 17.9491 3.06312L17.9505 3.0617L15.2325 16.2522C15.0311 17.1874 14.4916 17.4148 13.7369 16.9742L9.59781 13.8318L7.60139 15.8131C7.38064 16.0405 7.19438 16.2323 6.76668 16.2323L7.06055 11.8933L14.7317 4.75439C15.0655 4.45167 14.6572 4.28112 14.217 4.58242L4.73715 10.7307L0.65049 9.41748C-0.236655 9.12755 -0.25597 8.50362 0.838128 8.06304Z"></path>
  </symbol>
  <symbol fill="none" xmlns="http://www.w3.org/2000/svg" viewBox="0 0 14 15" id="tick">
    <path d="M1.90918 6.41292L6.04554 10.5493L12.7274 3.86746" stroke="#A2A1A1" stroke-width="1.9" stroke-linecap="round" stroke-linejoin="round"/>
  </symbol>
  <symbol fill="none" xmlns="http://www.w3.org/2000/svg" viewBox="0 0 22 22" id="user">
    <path d="M18.3334 19.25V17.4167C18.3334 16.4442 17.9471 15.5116 17.2595 14.8239C16.5718 14.1363 15.6392 13.75 14.6667 13.75H7.33341C6.36095 13.75 5.42832 14.1363 4.74069 14.8239C4.05306 15.5116 3.66675 16.4442 3.66675 17.4167V19.25" stroke="#363C4E" stroke-linecap="round" stroke-linejoin="round"></path>
    <path d="M10.9999 10.0833C13.025 10.0833 14.6666 8.44171 14.6666 6.41667C14.6666 4.39162 13.025 2.75 10.9999 2.75C8.97487 2.75 7.33325 4.39162 7.33325 6.41667C7.33325 8.44171 8.97487 10.0833 10.9999 10.0833Z" stroke="#363C4E" stroke-linecap="round" stroke-linejoin="round"></path>
  </symbol>
  <symbol xmlns="http://www.w3.org/2000/svg" viewBox="0 0 18 19" id="whatsapp">
    <path d="M0.0752803 8.96817C0.0747378 10.5471 0.487306 12.0886 1.27155 13.4473L0 18.0896L4.75112 16.8439C6.0602 17.5577 7.53395 17.934 9.03387 17.9346H9.03769C13.9769 17.9346 17.9979 13.9148 18 8.97512C18.0008 6.58096 17.0693 4.32992 15.3773 2.63651C13.6851 0.943097 11.4351 0.00997501 9.03769 0.00894165C4.09747 0.00894165 0.0771962 4.02792 0.0751295 8.96789L0.0752803 8.96817ZM2.90446 13.2132L2.72711 12.9315C1.98134 11.7458 1.58773 10.3755 1.58827 8.96856C1.5899 4.86278 4.93144 1.52219 9.04033 1.52219C11.0301 1.52297 12.9002 2.29868 14.3068 3.70609C15.7133 5.1136 16.4873 6.98467 16.4867 8.9744C16.4849 13.0804 13.1433 16.4213 9.03751 16.4213H9.03459C7.69771 16.4205 6.38662 16.0616 5.24321 15.3831L4.97107 15.2218L2.15156 15.961L2.90446 13.2132ZM9.03769 17.9346H9.03778H9.03769C9.0376 17.9346 9.03751 17.9346 9.03769 17.9346Z"></path>
    <path fill-rule="evenodd" clip-rule="evenodd" d="M6.79718 5.22193C6.6294 4.849 6.45286 4.84153 6.29329 4.83497C6.16269 4.82942 6.01332 4.82978 5.86413 4.82978C5.71476 4.82978 5.47215 4.88583 5.26701 5.10992C5.06168 5.33402 4.48315 5.87574 4.48315 6.97748C4.48315 8.07932 5.28571 9.14396 5.39752 9.29352C5.50953 9.4428 6.94676 11.7761 9.22275 12.6736C11.1145 13.4196 11.4994 13.2712 11.91 13.2338C12.3206 13.1966 13.2349 12.6923 13.4215 12.1694C13.6081 11.6465 13.6081 11.1983 13.5522 11.1047C13.4962 11.0114 13.3468 10.9554 13.1229 10.8435C12.8989 10.7314 11.798 10.1896 11.5927 10.1149C11.3874 10.0403 11.2381 10.003 11.0888 10.2272C10.9395 10.4511 10.5106 10.9554 10.3799 11.1047C10.2493 11.2544 10.1186 11.2731 9.89468 11.1611C9.67067 11.0487 8.94942 10.8125 8.09383 10.0497C7.42809 9.4561 6.97868 8.72309 6.84799 8.49887C6.71739 8.27495 6.83404 8.15366 6.94632 8.042C7.04694 7.94166 7.17034 7.78053 7.28235 7.64984C7.39408 7.51906 7.43135 7.42574 7.50599 7.27636C7.58073 7.1269 7.54336 6.99611 7.4874 6.8841C7.43135 6.77209 6.99617 5.66469 6.79704 5.22187"></path>
  </symbol>
  <symbol fill="none" xmlns="http://www.w3.org/2000/svg" viewBox="0 0 22 22" id="menu">
    <path d="M0.846191 11H21.1539M0.846191 5.92307H21.1539M0.846191 16.0769H21.1539" stroke="#363C4E" stroke-linecap="round"></path>
  </symbol>
  <symbol fill="none" xmlns="http://www.w3.org/2000/svg" viewBox="0 0 14 13" id="basket">
    <path d="M13.4649 12.2699L12.8247 3.30993C12.8008 2.975 12.5222 2.71558 12.1864 2.71558H9.62638C9.62638 1.3016 8.48036 0.155579 7.06639 0.155579C5.65242 0.155579 4.5064 1.3016 4.5064 2.71558H1.94641C1.61064 2.71558 1.33201 2.975 1.30811 3.30993L0.668115 12.2699C0.65554 12.4472 0.716965 12.6217 0.83814 12.7516C0.959114 12.8818 1.12871 12.9556 1.30641 12.9556H12.8264C13.0041 12.9556 13.1737 12.8818 13.2948 12.7516C13.4158 12.6217 13.4775 12.4472 13.4649 12.2699ZM9.30639 4.6356C9.48281 4.6356 9.62638 4.77918 9.62638 4.9556C9.62638 5.13203 9.48281 5.2756 9.30639 5.2756C9.12996 5.2756 8.98639 5.13203 8.98639 4.9556C8.98639 4.77918 9.12996 4.6356 9.30639 4.6356ZM7.06639 0.795579C8.12516 0.795579 8.98639 1.6568 8.98639 2.71558H5.1464C5.1464 1.65703 6.00762 0.795579 7.06639 0.795579ZM4.8264 4.6356C5.00283 4.6356 5.1464 4.77918 5.1464 4.9556C5.1464 5.13203 5.00283 5.2756 4.8264 5.2756C4.64998 5.2756 4.5064 5.13203 4.5064 4.9556C4.5064 4.77918 4.64998 4.6356 4.8264 4.6356ZM1.30641 12.3156L1.94641 3.3556H4.5064V4.05428C4.13435 4.18655 3.8664 4.53813 3.8664 4.9556C3.8664 5.48573 4.29628 5.9156 4.8264 5.9156C5.35652 5.9156 5.7864 5.48573 5.7864 4.9556C5.7864 4.53833 5.51845 4.18653 5.1464 4.05428V3.3556H8.98639V4.05428C8.61434 4.18655 8.34639 4.53813 8.34639 4.9556C8.34639 5.48573 8.77626 5.9156 9.30639 5.9156C9.83651 5.9156 10.2664 5.48573 10.2664 4.9556C10.2664 4.53833 9.99843 4.18653 9.62638 4.05428V3.3556H12.1864L12.8264 12.3156H1.30641Z" fill="#878585"></path>
  </symbol>
  <symbol fill="none" xmlns="http://www.w3.org/2000/svg" viewBox="0 0 10 6" id="arrow">
    <path d="M9 1L5 5L1 1" stroke="#F87171" stroke-width="1.8" stroke-linecap="round" stroke-linejoin="round"></path>
  </symbol>
</svg>